<svg xmlns="http://www.w3.org/2000/svg" viewBox="0 0 100 100" enable-background="new 0 0 100 100"><circle cx="50" cy="50" r="50" fill="#2b3447"/><path d="m77.5 57.2l-34.3-42.4-42.6 42.6c3.5 24.1 24.3 42.6 49.4 42.6.2 0 .4 0 .6 0l29.5-29.5-7.3-8.6 4.7-4.7" opacity=".5" fill="#131a26"/><g fill="#e8cfb1"><circle cx="25.6" cy="65.8" r="7.4"/><circle cx="41.9" cy="65.8" r="7.4"/><circle cx="58.1" cy="65.8" r="7.4"/><circle cx="74.4" cy="65.8" r="7.4"/></g><g fill="#2b3447"><circle cx="25.6" cy="65.8" r="3.8"/><circle cx="41.9" cy="65.8" r="3.8"/><circle cx="58.1" cy="65.8" r="3.8"/><circle cx="74.4" cy="65.8" r="3.8"/></g><path d="m76.3 65.3l-1.3-9.2-4.7-2-10.8-2.7-31.2 4.6.7 1.2-4.8 7.2c-.4.4-.6.8-.6 1.4 0 1.1.9 1.9 1.9 1.9h48.8c1.1 0 1.9-.9 1.9-1.9.1-.2.1-.3.1-.5" fill="#445472"/><path d="m43.2 14.8l3.3 17.9-6.2 7.1-9.8 4.5-4.2.6c0 0-3.7 4.4-2.4 9.2l4.5 1.8h26.1l3.5 1.2h19.6v-15.4c0 0-1.9-16.3-7.7-23.2l-16.5 3.1c-.1.1-2.7-5.2-10.2-6.8" fill="#f4a031"/><path d="m59.7 20.5c4.6 8.3 7.3 20.2 7.3 20.2v3.6 11.7h10.5v-14.3c0 0-1.9-16.3-7.7-23.2l-10.1 2" fill="#ffb93e"/><g fill="#e8cfb1"><path d="m64.4 24.9l-.5-2.6c-.1-.8-.9-1.3-1.6-1.1l-17.4 3.2c-.8.1-1.3.9-1.1 1.6l.5 2.6c.1.8.9 1.3 1.6 1.1l17.4-3.2c.7-.1 1.2-.9 1.1-1.6"/><path d="m52.1 43l1-1.2c.3-.4.3-.9-.1-1.2l-8.3-6.9c-.4-.3-.9-.3-1.2.1l-1 1.2c-.3.4-.3.9.1 1.2l8.3 6.9c.3.3.9.3 1.2-.1"/><path d="m41.9 51l1.5-.7c.4-.2.6-.7.4-1.1l-4.5-9.9c-.2-.4-.7-.6-1.1-.4l-1.5.7c-.4.2-.6.7-.4 1.1l4.5 9.9c.1.4.6.6 1.1.4"/><path d="m37.2 52.8l1.5-.7c.4-.2.6-.7.4-1.1l-4.5-9.9c-.2-.4-.7-.6-1.1-.4l-1.5.6c-.4.2-.6.7-.4 1.1l4.5 9.9c.2.5.7.7 1.1.5"/></g><path d="m52.7 56h1.6v-7.4c0 0-.4-15.1 16.8-15.1h4.9c-.1-.5-.3-1.1-.4-1.6h-4.4c-5.9 0-10.6 1.7-13.8 5-4.7 4.8-4.7 11.2-4.7 11.8v7.3" fill="#d8821d"/><circle cx="67" cy="45.4" r="3.4" fill="#a85604"/><path fill="#d8821d" d="m54.4 56l3.5 1.2h19.6v-3.1h-53.7l4.5 1.9z"/><circle cx="70.4" cy="38.8" r="1.9" fill="#a85604"/></svg>